<mxfile host="www.draw.io" modified="2020-02-03T03:53:33.676Z" agent="Mozilla/5.0 (Windows NT 10.0; Win64; x64) AppleWebKit/537.36 (KHTML, like Gecko) Chrome/79.0.3945.130 Safari/537.36" etag="f75Yy2HsyglZekdi7hHj" version="12.6.4" type="github">
  <diagram id="Gho3t6orIwdGERXmOVpN" name="Page-1">
    <mxGraphModel dx="1422" dy="723" grid="1" gridSize="10" guides="1" tooltips="1" connect="1" arrows="1" fold="1" page="1" pageScale="1" pageWidth="1169" pageHeight="827" backgroundImage="{&quot;src&quot;:&quot;https://hookagency.com/wp-content/uploads/2015/11/green-to-blue-ui-gradient-background.jpg&quot;,&quot;width&quot;:&quot;1580&quot;,&quot;height&quot;:&quot;828&quot;}" math="0" shadow="0">
      <root>
        <mxCell id="0"/>
        <mxCell id="1" parent="0"/>
        <mxCell id="B02nFkqHWHC7AFVquLc7-2" value="" style="rounded=1;arcSize=10;dashed=0;fillColor=none;gradientColor=none;strokeWidth=2;strokeColor=#FFFFFF;" parent="1" vertex="1">
          <mxGeometry x="230" y="80" width="940" height="610" as="geometry"/>
        </mxCell>
        <mxCell id="B02nFkqHWHC7AFVquLc7-3" value="" style="dashed=0;html=1;shape=mxgraph.aws3.cloud;fillColor=#F58536;gradientColor=none;dashed=0;" parent="1" vertex="1">
          <mxGeometry x="980" y="40" width="80" height="60" as="geometry"/>
        </mxCell>
        <mxCell id="B02nFkqHWHC7AFVquLc7-4" value="" style="rounded=1;arcSize=10;dashed=1;fillColor=none;gradientColor=none;dashPattern=8 3 1 3;strokeWidth=2;strokeColor=#FFFFFF;" parent="1" vertex="1">
          <mxGeometry x="300" y="180" width="160" height="280" as="geometry"/>
        </mxCell>
        <mxCell id="B02nFkqHWHC7AFVquLc7-5" value="" style="outlineConnect=0;fontColor=#232F3E;gradientColor=#945DF2;gradientDirection=north;fillColor=#5A30B5;strokeColor=#ffffff;dashed=0;verticalLabelPosition=bottom;verticalAlign=top;align=center;html=1;fontSize=12;fontStyle=0;aspect=fixed;shape=mxgraph.aws4.resourceIcon;resIcon=mxgraph.aws4.elasticsearch_service;" parent="1" vertex="1">
          <mxGeometry x="330" y="220" width="78" height="78" as="geometry"/>
        </mxCell>
        <mxCell id="B02nFkqHWHC7AFVquLc7-6" value="&lt;font color=&quot;#fcfcfc&quot;&gt;&lt;b&gt;Elasticsearch service&lt;/b&gt;&lt;/font&gt;" style="text;html=1;strokeColor=none;fillColor=none;align=center;verticalAlign=middle;whiteSpace=wrap;rounded=0;" parent="1" vertex="1">
          <mxGeometry x="330" y="309" width="80" height="30" as="geometry"/>
        </mxCell>
        <mxCell id="B02nFkqHWHC7AFVquLc7-20" style="edgeStyle=orthogonalEdgeStyle;rounded=0;orthogonalLoop=1;jettySize=auto;html=1;entryX=-0.009;entryY=0.793;entryDx=0;entryDy=0;entryPerimeter=0;fillColor=#f5f5f5;strokeColor=#FFFFFF;curved=1;" parent="1" source="B02nFkqHWHC7AFVquLc7-9" target="B02nFkqHWHC7AFVquLc7-4" edge="1">
          <mxGeometry relative="1" as="geometry"/>
        </mxCell>
        <mxCell id="B02nFkqHWHC7AFVquLc7-9" value="" style="fontColor=#0066CC;verticalAlign=top;verticalLabelPosition=bottom;labelPosition=center;align=center;html=1;outlineConnect=0;fillColor=#CCCCCC;strokeColor=#6881B3;gradientColor=none;gradientDirection=north;strokeWidth=2;shape=mxgraph.networks.users;" parent="1" vertex="1">
          <mxGeometry x="40" y="209" width="90" height="100" as="geometry"/>
        </mxCell>
        <mxCell id="B02nFkqHWHC7AFVquLc7-18" value="Desktop and Mobile" style="strokeColor=#dddddd;shadow=1;strokeWidth=1;rounded=1;absoluteArcSize=1;arcSize=2;labelPosition=center;verticalLabelPosition=middle;align=center;verticalAlign=bottom;spacingLeft=0;fontColor=#999999;fontSize=12;whiteSpace=wrap;spacingBottom=2;" parent="1" vertex="1">
          <mxGeometry x="50" y="330" width="70" height="100" as="geometry"/>
        </mxCell>
        <mxCell id="B02nFkqHWHC7AFVquLc7-19" value="" style="dashed=0;connectable=0;html=1;fillColor=#757575;strokeColor=none;shape=mxgraph.gcp2.desktop_and_mobile;part=1;" parent="B02nFkqHWHC7AFVquLc7-18" vertex="1">
          <mxGeometry x="0.5" width="50" height="33" relative="1" as="geometry">
            <mxPoint x="-25" y="18.5" as="offset"/>
          </mxGeometry>
        </mxCell>
        <mxCell id="B02nFkqHWHC7AFVquLc7-21" value="" style="shape=image;html=1;verticalAlign=top;verticalLabelPosition=bottom;labelBackgroundColor=#ffffff;imageAspect=0;aspect=fixed;image=https://cdn4.iconfinder.com/data/icons/logos-brands-5/24/kibana-128.png;strokeColor=#FFFFFF;fontColor=#E6E6E6;" parent="1" vertex="1">
          <mxGeometry x="330" y="360" width="58" height="58" as="geometry"/>
        </mxCell>
        <mxCell id="B02nFkqHWHC7AFVquLc7-22" value="&lt;font color=&quot;#fcfcfc&quot;&gt;&lt;b&gt;Kibana&lt;/b&gt;&lt;/font&gt;" style="text;html=1;strokeColor=none;fillColor=none;align=center;verticalAlign=middle;whiteSpace=wrap;rounded=0;" parent="1" vertex="1">
          <mxGeometry x="380" y="366" width="80" height="46" as="geometry"/>
        </mxCell>
        <mxCell id="B02nFkqHWHC7AFVquLc7-26" style="edgeStyle=orthogonalEdgeStyle;rounded=0;orthogonalLoop=1;jettySize=auto;html=1;strokeColor=#FFFFFF;fontColor=#E6E6E6;curved=1;" parent="1" source="B02nFkqHWHC7AFVquLc7-25" edge="1">
          <mxGeometry relative="1" as="geometry">
            <mxPoint x="1060" y="315" as="targetPoint"/>
            <Array as="points">
              <mxPoint x="1120" y="315"/>
              <mxPoint x="1120" y="315"/>
            </Array>
          </mxGeometry>
        </mxCell>
        <mxCell id="B02nFkqHWHC7AFVquLc7-25" value="" style="shape=image;html=1;verticalAlign=top;verticalLabelPosition=bottom;labelBackgroundColor=#ffffff;imageAspect=0;aspect=fixed;image=https://cdn3.iconfinder.com/data/icons/capsocial-round/500/twitter-128.png;strokeColor=#FFFFFF;fontColor=#E6E6E6;" parent="1" vertex="1">
          <mxGeometry x="1210" y="271" width="88" height="88" as="geometry"/>
        </mxCell>
        <mxCell id="B02nFkqHWHC7AFVquLc7-27" value="&lt;b&gt;&lt;font style=&quot;font-size: 22px&quot;&gt;API&lt;/font&gt;&lt;/b&gt;" style="text;html=1;strokeColor=none;fillColor=none;align=center;verticalAlign=middle;whiteSpace=wrap;rounded=0;fontColor=#E6E6E6;" parent="1" vertex="1">
          <mxGeometry x="1234" y="366" width="40" height="20" as="geometry"/>
        </mxCell>
        <mxCell id="B02nFkqHWHC7AFVquLc7-34" style="edgeStyle=orthogonalEdgeStyle;rounded=0;orthogonalLoop=1;jettySize=auto;html=1;strokeColor=#FFFFFF;fontColor=#E6E6E6;curved=1;" parent="1" target="B02nFkqHWHC7AFVquLc7-33" edge="1">
          <mxGeometry relative="1" as="geometry">
            <mxPoint x="980" y="315" as="sourcePoint"/>
            <Array as="points">
              <mxPoint x="960" y="315"/>
              <mxPoint x="960" y="315"/>
            </Array>
          </mxGeometry>
        </mxCell>
        <mxCell id="B02nFkqHWHC7AFVquLc7-32" value="&lt;font color=&quot;#fcfcfc&quot;&gt;&lt;b&gt;S3 Bucket&lt;/b&gt;&lt;/font&gt;" style="text;html=1;strokeColor=none;fillColor=none;align=center;verticalAlign=middle;whiteSpace=wrap;rounded=0;" parent="1" vertex="1">
          <mxGeometry x="804.5" y="357" width="80" height="46" as="geometry"/>
        </mxCell>
        <mxCell id="B02nFkqHWHC7AFVquLc7-38" style="edgeStyle=orthogonalEdgeStyle;curved=1;rounded=0;orthogonalLoop=1;jettySize=auto;html=1;strokeColor=#FFFFFF;fontColor=#E6E6E6;" parent="1" source="B02nFkqHWHC7AFVquLc7-33" target="B02nFkqHWHC7AFVquLc7-35" edge="1">
          <mxGeometry relative="1" as="geometry"/>
        </mxCell>
        <mxCell id="B02nFkqHWHC7AFVquLc7-33" value="" style="shape=image;html=1;verticalAlign=top;verticalLabelPosition=bottom;labelBackgroundColor=#ffffff;imageAspect=0;aspect=fixed;image=https://cdn2.iconfinder.com/data/icons/amazon-aws-stencils/100/Storage__Content_Delivery_Amazon_S3_Bucket-128.png;strokeColor=#FFFFFF;fontColor=#E6E6E6;" parent="1" vertex="1">
          <mxGeometry x="780.5" y="251" width="128" height="128" as="geometry"/>
        </mxCell>
        <mxCell id="B02nFkqHWHC7AFVquLc7-37" style="edgeStyle=orthogonalEdgeStyle;curved=1;rounded=0;orthogonalLoop=1;jettySize=auto;html=1;entryX=1.025;entryY=0.475;entryDx=0;entryDy=0;entryPerimeter=0;strokeColor=#FFFFFF;fontColor=#E6E6E6;" parent="1" source="B02nFkqHWHC7AFVquLc7-35" target="B02nFkqHWHC7AFVquLc7-4" edge="1">
          <mxGeometry relative="1" as="geometry">
            <Array as="points">
              <mxPoint x="550" y="315"/>
              <mxPoint x="550" y="313"/>
            </Array>
          </mxGeometry>
        </mxCell>
        <mxCell id="B02nFkqHWHC7AFVquLc7-35" value="" style="outlineConnect=0;fontColor=#232F3E;gradientColor=#F78E04;gradientDirection=north;fillColor=#D05C17;strokeColor=#ffffff;dashed=0;verticalLabelPosition=bottom;verticalAlign=top;align=center;html=1;fontSize=12;fontStyle=0;aspect=fixed;shape=mxgraph.aws4.resourceIcon;resIcon=mxgraph.aws4.lambda;" parent="1" vertex="1">
          <mxGeometry x="640" y="276" width="78" height="78" as="geometry"/>
        </mxCell>
        <mxCell id="B02nFkqHWHC7AFVquLc7-36" value="&lt;font color=&quot;#fcfcfc&quot;&gt;&lt;b&gt;Lambda&lt;/b&gt;&lt;/font&gt;" style="text;html=1;strokeColor=none;fillColor=none;align=center;verticalAlign=middle;whiteSpace=wrap;rounded=0;" parent="1" vertex="1">
          <mxGeometry x="640" y="359" width="80" height="46" as="geometry"/>
        </mxCell>
        <mxCell id="B02nFkqHWHC7AFVquLc7-39" value="" style="outlineConnect=0;dashed=0;verticalLabelPosition=bottom;verticalAlign=top;align=center;html=1;shape=mxgraph.aws3.kinesis_firehose;fillColor=#F58534;gradientColor=none;strokeColor=#FFFFFF;fontColor=#E6E6E6;direction=west;rotation=180;flipV=0;flipH=1;" parent="1" vertex="1">
          <mxGeometry x="990" y="282.75" width="60" height="64.5" as="geometry"/>
        </mxCell>
        <mxCell id="B02nFkqHWHC7AFVquLc7-40" value="&lt;font color=&quot;#fcfcfc&quot;&gt;&lt;b&gt;Kinesis Firehose&lt;/b&gt;&lt;/font&gt;" style="text;html=1;strokeColor=none;fillColor=none;align=center;verticalAlign=middle;whiteSpace=wrap;rounded=0;" parent="1" vertex="1">
          <mxGeometry x="980" y="357" width="80" height="46" as="geometry"/>
        </mxCell>
        <mxCell id="B02nFkqHWHC7AFVquLc7-41" value="&lt;h6&gt;&lt;span style=&quot;font-weight: 400 ; font-size: 12px&quot;&gt;&lt;font color=&quot;#ffffff&quot;&gt;Firehose automatically loads the data directly into S3.&lt;/font&gt;&lt;/span&gt;&lt;/h6&gt;" style="text;html=1;strokeColor=none;fillColor=none;spacing=5;spacingTop=-20;overflow=hidden;rounded=0;fontColor=#E6E6E6;verticalAlign=top;whiteSpace=wrap;" parent="1" vertex="1">
          <mxGeometry x="880" y="405" width="170" height="77" as="geometry"/>
        </mxCell>
        <mxCell id="f5CvtdDWYQ1Ze81EYb7a-1" value="&lt;h6&gt;&lt;span style=&quot;font-weight: 400 ; font-size: 12px&quot;&gt;&lt;font color=&quot;#ffffff&quot;&gt;Lambda is triggered once a new file is created.&lt;/font&gt;&lt;/span&gt;&lt;/h6&gt;" style="text;html=1;strokeColor=none;fillColor=none;spacing=5;spacingTop=-20;overflow=hidden;rounded=0;fontColor=#E6E6E6;verticalAlign=top;whiteSpace=wrap;" vertex="1" parent="1">
          <mxGeometry x="700" y="403" width="170" height="77" as="geometry"/>
        </mxCell>
        <mxCell id="f5CvtdDWYQ1Ze81EYb7a-2" value="&lt;h6&gt;&lt;span style=&quot;font-weight: 400 ; font-size: 12px&quot;&gt;&lt;font color=&quot;#ffffff&quot;&gt;Lambda function indexes S3 file context to Elasticsearch.&lt;/font&gt;&lt;/span&gt;&lt;/h6&gt;" style="text;html=1;strokeColor=none;fillColor=none;spacing=5;spacingTop=-20;overflow=hidden;rounded=0;fontColor=#E6E6E6;verticalAlign=top;whiteSpace=wrap;" vertex="1" parent="1">
          <mxGeometry x="470" y="386" width="170" height="77" as="geometry"/>
        </mxCell>
      </root>
    </mxGraphModel>
  </diagram>
</mxfile>
